<?xml version="1.0" encoding="UTF-8"?>
<svg width="752pt" height="752pt" version="1.1" viewBox="0 0 752 752" xmlns="http://www.w3.org/2000/svg">
    <g>
        <path d="m376 0c-49.375 0-98.27 9.7266-143.89 28.621-45.621 18.895-87.07 46.59-121.98 81.508-34.918 34.914-62.613 76.363-81.508 121.98-18.895 45.617-28.621 94.512-28.621 143.89 0 99.723 39.617 195.36 110.13 265.87 70.516 70.516 166.15 110.13 265.87 110.13 99.723 0 195.36-39.617 265.87-110.13 70.512-70.512 110.13-166.15 110.13-265.87 0-99.719-39.613-195.36-110.12-265.87-70.516-70.516-166.15-110.13-265.88-110.13zm0 42.465c43.316 0 86.207 8.625 126.23 25.387 40.02 16.762 76.379 41.332 107.01 72.305s54.926 67.738 71.5 108.21c16.578 40.465 25.105 83.84 25.105 127.64 0 88.461-34.75 173.3-96.605 235.84-61.859 62.551-145.75 97.691-233.23 97.691-43.312 0-86.207-8.625-126.22-25.387-40.02-16.762-76.383-41.332-107.01-72.301-30.629-30.973-54.926-67.742-71.504-108.21-16.574-40.469-25.105-83.84-25.105-127.64s8.5312-87.172 25.105-127.64c16.578-40.469 40.871-77.238 71.5-108.21 30.629-30.969 66.992-55.539 107.01-72.301 40.02-16.762 82.914-25.387 126.23-25.387z"/>
        <path d="m591.42 354.72-153.86-153.85h-0.03125l-13.262-13.289c-21.164-21.133-55.586-21.133-76.719 0l-5.9492 5.9492c-4.0273 4.0273-4.0273 10.598 0 14.652l37 36.969-14.68 14.68c-1.9531 1.9531-3.0469 4.5859-3.0469 7.3398 0 2.7539 1.0938 5.3867 3.0469 7.3125l15.598 15.598-207.58 206.63c-9.2656 9.207-14.355 21.488-14.414 34.543-0.03125 13.055 5.0312 25.367 14.238 34.629 9.2344 9.2656 21.488 14.355 34.57 14.414h0.11719c13.023 0 25.246-5.0625 34.484-14.238l36.348-36.168c1.9844-1.9531 3.0781-4.6484 3.0469-7.4297l-0.058594-6.4219c-0.17578-18.262 7.1328-36.141 20.098-49.016l121.74-121.24c11.898 33.566 4.4414 72.516-22.375 99.363-2.457 2.4258-3.5234 5.9492-2.8398 9.3516 0.67969 3.375 2.9883 6.2148 6.1875 7.5469 17.699 7.2812 34.422 10.152 49.816 10.152 26.344 0 48.75-8.4062 65.148-17.402 41.676-22.852 71.48-64.172 76.246-90.926 0.58594-3.3477-0.47656-6.75-2.875-9.1484zm-227.79-153.82c13.141-11.723 33.387-11.277 45.996 1.332l5.9492 5.9492-22.316 22.316zm-77.875 251.41c-16.871 16.812-26.434 40.105-26.195 63.934l0.03125 2.043-33.238 33.062c-5.3555 5.3281-12.371 8.1094-19.98 8.2266-7.5195-0.03125-14.594-2.9883-19.891-8.3164-5.3281-5.3281-8.2266-12.43-8.2266-19.949 0.03125-7.5469 2.9883-14.621 8.3164-19.922l207.61-206.66 5.5664 5.5664c4.8828 4.9141 9.1445 10.242 12.758 15.836zm128.61-156.67-28.473-28.473 44.34-44.34 112.98 112.98c-8.9961 27.262-44.902 76.602-99.746 75.477 3.2266-10.746 4.9141-22.023 4.9141-33.566-0.007812-31.02-12.086-60.145-34.016-82.078zm93.707 141.01c-19.418 10.625-48.75 20.363-83.113 11.012 5.1484-6.8086 9.4727-14.09 12.992-21.754 2.6055 0.17578 5.1797 0.26562 7.6953 0.26562 57.48 0 95.516-46.914 109.01-78.91l17.965 17.965c-6.2383 19.742-29.918 52.422-64.551 71.422z"/>
        <path d="m219.25 527.46c-0.47266 2.3672-1.8359 4.4102-3.8164 5.7422-1.5078 1.0078-3.2266 1.5391-5.0039 1.5391-0.59375 0-1.1836-0.058593-1.7773-0.17578-2.3398-0.47266-4.3789-1.8359-5.7109-3.8164-1.332-2.0117-1.8359-4.4102-1.3633-6.7773 0.47266-2.3398 1.8359-4.3789 3.8164-5.7109 2.0117-1.332 4.4102-1.8359 6.7773-1.3633 2.3398 0.47266 4.3789 1.8359 5.7109 3.8164 1.3359 2.0117 1.8398 4.4102 1.3672 6.7461z"/>
    </g>
</svg>